<svg width="20" height="24" viewBox="0 0 20 24" fill="none" xmlns="http://www.w3.org/2000/svg">
<path d="M7.03401 15.9819H17.0555C17.4602 15.9819 17.8132 15.6926 17.8132 15.2747C17.8132 14.8569 17.4602 14.5676 17.0555 14.5676H7.22342C6.80155 14.5676 6.54326 14.2863 6.483 13.8764L6.35385 13.0407H17.1244C18.4331 13.0407 19.1218 12.2933 19.3198 11.0799L19.9656 7.03767C19.9828 6.92516 20 6.78855 20 6.70819C20 6.24209 19.647 5.92868 19.0616 5.92868H5.24322L5.10547 5.0447C5.00215 4.35359 4.70943 4 3.75377 4H0.792079C0.370211 4 0 4.34555 0 4.7554C0 5.15721 0.370211 5.50276 0.792079 5.50276H3.50409L4.84718 14.0372C5.03659 15.2426 5.72536 15.9819 7.03401 15.9819ZM18.235 7.34304L17.684 10.9352C17.6238 11.3531 17.3827 11.6183 16.9522 11.6183L6.13 11.6263L5.46707 7.34304H18.235ZM7.73138 20C8.56651 20 9.22084 19.3812 9.22084 18.6097C9.22084 17.8302 8.56651 17.2115 7.73138 17.2115C6.90486 17.2115 6.24193 17.8302 6.24193 18.6097C6.24193 19.3812 6.90486 20 7.73138 20ZM15.6952 20C16.5303 20 17.1933 19.3812 17.1933 18.6097C17.1933 17.8302 16.5303 17.2115 15.6952 17.2115C14.8687 17.2115 14.1972 17.8302 14.1972 18.6097C14.1972 19.3812 14.8687 20 15.6952 20Z" fill="#F5F5F5"/>
</svg>
