<svg width="50" height="50" viewBox="0 0 50 50" fill="none" xmlns="http://www.w3.org/2000/svg">
<g id="SVG">
<path id="Vector" d="M15.275 14.25C18.1883 14.25 20.55 11.8435 20.55 8.875C20.55 5.90647 18.1883 3.5 15.275 3.5C12.3617 3.5 10 5.90647 10 8.875C10 11.8435 12.3617 14.25 15.275 14.25Z" stroke="#783F8E" stroke-width="2.5"/>
<path id="Vector_2" d="M15.275 44.25C18.1883 44.25 20.55 41.8435 20.55 38.875C20.55 35.9065 18.1883 33.5 15.275 33.5C12.3617 33.5 10 35.9065 10 38.875C10 41.8435 12.3617 44.25 15.275 44.25Z" stroke="#783F8E" stroke-width="2.5"/>
<path id="Vector_3" d="M32.875 29.25C35.8435 29.25 38.25 26.8435 38.25 23.875C38.25 20.9065 35.8435 18.5 32.875 18.5C29.9065 18.5 27.5 20.9065 27.5 23.875C27.5 26.8435 29.9065 29.25 32.875 29.25Z" stroke="#783F8E" stroke-width="2.5"/>
<path id="Vector_4" d="M10 7.5H2.5V10H10V7.5Z" fill="white"/>
<path id="Vector_5" d="M45 7.5H25V10H45V7.5Z" fill="white"/>
<path id="Vector_6" d="M22.5 22.5H2.5V25H22.5V22.5Z" fill="white"/>
<path id="Vector_7" d="M45 22.5H37.5V25H45V22.5Z" fill="white"/>
<path id="Vector_8" d="M10 37.5H2.5V40H10V37.5Z" fill="white"/>
<path id="Vector_9" d="M45 37.5H25V40H45V37.5Z" fill="white"/>
</g>
</svg>
