<svg width="50" height="50" viewBox="0 0 50 50" fill="none" xmlns="http://www.w3.org/2000/svg">
<g id="SVG">
<path id="Vector" d="M19.25 30.25C24.0825 30.25 28 26.3325 28 21.5C28 16.6675 24.0825 12.75 19.25 12.75C14.4175 12.75 10.5 16.6675 10.5 21.5C10.5 26.3325 14.4175 30.25 19.25 30.25Z" stroke="#783F8E" stroke-width="2.75"/>
<path id="Vector_2" d="M2.5 45.25C4.25 36.5 11 30.25 19 30.25C27.25 30.25 34.25 37 35.75 45.75" stroke="#783F8E" stroke-width="2.75"/>
<path id="Vector_3" d="M28.5 9.99986C32 5.99986 38.5 6.99986 40.75 11.7499C43 16.4999 39.25 22.2499 34 22.2499C41.25 22.2499 47 28.2499 48 35.2499" stroke="#783F8E" stroke-width="2.75"/>
</g>
</svg>
