<svg width="50" height="50" viewBox="0 0 50 50" fill="none" xmlns="http://www.w3.org/2000/svg">
<g id="SVG">
<path id="Vector" d="M24.9925 33.2751C29.5627 33.2751 33.2675 29.5703 33.2675 25.0001C33.2675 20.4299 29.5627 16.7251 24.9925 16.7251C20.4224 16.7251 16.7175 20.4299 16.7175 25.0001C16.7175 29.5703 20.4224 33.2751 24.9925 33.2751Z" stroke="#783F8E" stroke-width="2.5"/>
<path id="Vector_2" d="M46.22 30.7125L40.5125 40.5925C38.305 38.74 35.4625 38.2025 33.2575 39.4775C31.07 40.7225 30.1175 43.4325 30.615 46.25H19.3375C19.845 43.435 18.8825 40.7475 16.71 39.4775C14.5025 38.175 11.6375 38.73 9.4325 40.5925L3.75 30.7125C6.4325 29.6775 8.2925 27.4975 8.2925 24.9775C8.2625 22.45 6.4325 20.3025 3.75 19.29L9.4125 9.46C11.6125 11.29 14.485 11.845 16.7175 10.58C18.8875 9.305 19.8475 6.5925 19.3375 3.75H30.6575C30.18 6.5925 31.1025 9.275 33.285 10.55C35.515 11.825 38.3575 11.29 40.5625 9.485L46.2175 19.285C43.51 20.2925 41.6525 22.47 41.675 25.0225C41.68 27.545 43.5375 29.7 46.22 30.7125Z" stroke="#783F8E" stroke-width="2.5"/>
</g>
</svg>
