<svg width="18" height="24" viewBox="0 0 18 24" fill="none" xmlns="http://www.w3.org/2000/svg">
<path d="M8.00455 12.0385C10.2058 12.0385 11.9886 10.2065 11.9886 7.96362C11.9886 5.75495 10.2058 4 8.00455 4C5.81239 4 4.01137 5.78063 4.02047 7.98074C4.02956 10.2151 5.8033 12.0385 8.00455 12.0385ZM8.00455 10.5404C6.74929 10.5404 5.68505 9.41894 5.68505 7.98074C5.67595 6.57678 6.74019 5.49813 8.00455 5.49813C9.278 5.49813 10.324 6.55966 10.324 7.96362C10.324 9.40182 9.2689 10.5404 8.00455 10.5404ZM2.3286 20H13.6714C15.245 20 16 19.5292 16 18.519C16 16.1648 12.88 13.0316 8.00455 13.0316C3.12905 13.0316 0 16.1648 0 18.519C0 19.5292 0.754974 20 2.3286 20ZM2.04662 18.5019C1.82831 18.5019 1.74645 18.4334 1.74645 18.2793C1.74645 16.9695 3.99318 14.5297 8.00455 14.5297C12.0068 14.5297 14.2536 16.9695 14.2536 18.2793C14.2536 18.4334 14.1717 18.5019 13.9534 18.5019H2.04662Z" fill="#F5F5F5"/>
</svg>
